<svg xmlns="http://www.w3.org/2000/svg" viewBox="0 0 1182.54 826.6"><defs><style>.cls-1{fill:#545454;}</style></defs><g id="Layer_2" data-name="Layer 2"><g id="Layer_1-2" data-name="Layer 1"><path class="cls-1" d="M103.38,806.2a5.52,5.52,0,0,1-5.52-5.51v-47a5.52,5.52,0,0,1,5.52-5.51h27.41a5.51,5.51,0,0,1,5.5,5.51v47a5.51,5.51,0,0,1-5.5,5.51Zm105.35,0a5.52,5.52,0,0,1-5.49-5.51l0-47a5.47,5.47,0,0,1,5.47-5.51h27.44a5.51,5.51,0,0,1,5.49,5.51v47a5.51,5.51,0,0,1-5.49,5.51Zm105.4,0a5.51,5.51,0,0,1-5.5-5.51v-47a5.5,5.5,0,0,1,5.5-5.49h27.41a5.51,5.51,0,0,1,5.5,5.51v47a5.51,5.51,0,0,1-5.5,5.51Zm105.37,0a5.51,5.51,0,0,1-5.51-5.51v-47a5.53,5.53,0,0,1,5.51-5.51h27.42a5.5,5.5,0,0,1,5.48,5.51v47a5.49,5.49,0,0,1-5.48,5.51Zm105.38,0a5.5,5.5,0,0,1-5.5-5.51v-47a5.51,5.51,0,0,1,5.5-5.51H552.3a5.52,5.52,0,0,1,5.49,5.51v47a5.51,5.51,0,0,1-5.49,5.51Zm105.36,0a5.5,5.5,0,0,1-5.5-5.51v-47a5.52,5.52,0,0,1,5.52-5.51h27.4a5.52,5.52,0,0,1,5.51,5.49v47a5.52,5.52,0,0,1-5.51,5.51Zm105.39,0a5.53,5.53,0,0,1-5.51-5.51v-47a5.52,5.52,0,0,1,5.51-5.49h27.42a5.51,5.51,0,0,1,5.49,5.51v47a5.51,5.51,0,0,1-5.49,5.51Zm105.36,0a5.51,5.51,0,0,1-5.5-5.51v-47a5.52,5.52,0,0,1,5.5-5.51h27.43a5.51,5.51,0,0,1,5.5,5.49v47a5.52,5.52,0,0,1-5.5,5.51Zm105.38,0a5.5,5.5,0,0,1-5.49-5.51v-47a5.5,5.5,0,0,1,5.49-5.51h27.42a5.51,5.51,0,0,1,5.51,5.51l0,47a5.48,5.48,0,0,1-5.49,5.51Zm105.39,0a5.51,5.51,0,0,1-5.51-5.51v-47a5.51,5.51,0,0,1,5.51-5.49h27.42a5.51,5.51,0,0,1,5.49,5.51v47a5.5,5.5,0,0,1-5.49,5.51ZM103.38,78.41a5.49,5.49,0,0,1-5.52-5.49v-47a5.51,5.51,0,0,1,5.52-5.5h27.41a5.5,5.5,0,0,1,5.5,5.5v47a5.51,5.51,0,0,1-5.5,5.51Zm105.35,0a5.49,5.49,0,0,1-5.47-5.51v-47a5.47,5.47,0,0,1,5.47-5.5h27.44a5.49,5.49,0,0,1,5.48,5.5v47a5.48,5.48,0,0,1-5.48,5.51Zm105.4,0a5.49,5.49,0,0,1-5.5-5.51v-47a5.5,5.5,0,0,1,5.5-5.5h27.41a5.51,5.51,0,0,1,5.5,5.5v47a5.51,5.51,0,0,1-5.5,5.51Zm105.37,0A5.51,5.51,0,0,1,414,72.92v-47a5.51,5.51,0,0,1,5.51-5.5h27.42a5.5,5.5,0,0,1,5.48,5.5v47a5.49,5.49,0,0,1-5.48,5.51Zm105.38,0a5.5,5.5,0,0,1-5.5-5.51v-47a5.5,5.5,0,0,1,5.5-5.5H552.3a5.51,5.51,0,0,1,5.49,5.5v47a5.5,5.5,0,0,1-5.49,5.51Zm105.36,0a5.51,5.51,0,0,1-5.5-5.51v-47a5.51,5.51,0,0,1,5.52-5.5h27.4a5.5,5.5,0,0,1,5.5,5.5v47a5.5,5.5,0,0,1-5.5,5.51Zm105.39,0a5.5,5.5,0,0,1-5.51-5.51l0-47a5.48,5.48,0,0,1,5.49-5.5h27.42a5.51,5.51,0,0,1,5.49,5.5v47a5.5,5.5,0,0,1-5.49,5.51Zm105.36,0a5.51,5.51,0,0,1-5.5-5.51v-47a5.52,5.52,0,0,1,5.5-5.51h27.43a5.51,5.51,0,0,1,5.5,5.5v47a5.51,5.51,0,0,1-5.5,5.51Zm105.38,0a5.5,5.5,0,0,1-5.49-5.51v-47a5.5,5.5,0,0,1,5.49-5.5h27.42a5.51,5.51,0,0,1,5.51,5.5v47a5.52,5.52,0,0,1-5.51,5.51Zm105.39,0a5.51,5.51,0,0,1-5.51-5.51v-47a5.51,5.51,0,0,1,5.51-5.5h27.42a5.51,5.51,0,0,1,5.49,5.5v47a5.5,5.5,0,0,1-5.49,5.51ZM1182.54,826.6V806.2h-25.42a5.5,5.5,0,0,1-5.49-5.51v-47a5.49,5.49,0,0,1,5.48-5.51h25.42V78.43h-25.4a5.49,5.49,0,0,1-5.5-5.51v-47a5.51,5.51,0,0,1,5.49-5.5h25.42V0L0,0V20.41H25.4a5.51,5.51,0,0,1,5.51,5.5v47a5.5,5.5,0,0,1-5.51,5.51H0V748.19H25.4a5.51,5.51,0,0,1,5.51,5.49v47a5.49,5.49,0,0,1-5.51,5.5H0v20.4H1182.54"/></g></g></svg>