<svg xmlns="http://www.w3.org/2000/svg" xmlns:xlink="http://www.w3.org/1999/xlink" viewBox="0 0 65.86 110.72"><defs><style>.cls-1{fill:none;}.cls-2{fill:#737677;}.cls-3{fill:#39af74;}.cls-4{clip-path:url(#clip-path);}.cls-5{clip-path:url(#clip-path-2);}</style><clipPath id="clip-path" transform="translate(0 -0.1)"><rect class="cls-1" x="29.5" width="36" height="26.16"/></clipPath><clipPath id="clip-path-2" transform="translate(0 -0.1)"><rect class="cls-1" y="0.1" width="65.86" height="110.72"/></clipPath></defs><g id="Layer_2" data-name="Layer 2"><g id="Layer_1-2" data-name="Layer 1"><path class="cls-2" d="M23.06,73.49,3.6,109.71a.79.79,0,0,1-.69.42.6.6,0,0,1-.27-.06H2.58a.77.77,0,0,1-.28-.23.78.78,0,0,1-.12-.77L16.89,70.74l.69.27.86.24,2.07.58,1.54.41.08-.14.6.33a.78.78,0,0,1,.33,1.06" transform="translate(0 -0.1)"/><path class="cls-3" d="M19.79,34v-.64H18.55C10.72,33.65,4.6,36.85,2,42.16A13,13,0,0,0,.86,45.92c-.6,3.83.41,8.1,3,12.36a36.22,36.22,0,0,0,12.5,12c1.13.68,2.3,1.32,3.51,1.91l.72.34c.6.28,1.21.54,1.8.79h0c.43.18.85.34,1.28.5a38.33,38.33,0,0,0,13.39,2.58c8,0,14.64-3.08,17.41-8.82a14.29,14.29,0,0,0,.84-9.83,24.29,24.29,0,0,0-4.6-9.15L50.19,48l-.26-.31-.51.43L19.79,34" transform="translate(0 -0.1)"/><path class="cls-3" d="M57.61,24l-26-11.86-.66-.35L15.73,40.11l0,.1c-2,5.6,4.79,11.66,12.5,15.18A31.34,31.34,0,0,0,40.5,58.48c3.25,0,5.93-.93,7.21-3.24l10.6-31-.7-.24" transform="translate(0 -0.1)"/><g class="cls-4"><path class="cls-3" d="M64.68,20.05c-1.12,2.69-4,4.41-8.11,4.87-.71.07-1.43.11-2.17.11a29.18,29.18,0,0,1-11-2.36,27.63,27.63,0,0,1-10.89-7.73c-2.59-3.23-3.41-6.48-2.29-9.17a6.48,6.48,0,0,1,1.33-2A10.78,10.78,0,0,1,38.34.91,27.56,27.56,0,0,1,51.5,3.15a27.57,27.57,0,0,1,10.89,7.74,11.64,11.64,0,0,1,2.71,5.77,6.45,6.45,0,0,1-.42,3.39" transform="translate(0 -0.1)"/></g><g class="cls-5"><path d="M5,45.24a.64.64,0,0,1-.2,0,.69.69,0,0,1-.47-.86c1.13-3.68,4.63-6.93,8.92-8.26a.69.69,0,0,1,.87.45.71.71,0,0,1-.46.88c-3.81,1.18-7,4.13-8,7.34A.71.71,0,0,1,5,45.24ZM26.9,26.73a.71.71,0,0,1-.32-.07.7.7,0,0,1-.31-.93l4-8.08a.69.69,0,0,1,.93-.32.7.7,0,0,1,.32.94l-4,8.08A.7.7,0,0,1,26.9,26.73Zm7.69-21a.69.69,0,0,1-.3-1.32A13.62,13.62,0,0,1,47,4.36a.71.71,0,0,1,.3.94.68.68,0,0,1-.93.3,12.29,12.29,0,0,0-11.49,0A.66.66,0,0,1,34.59,5.68ZM64,19.79a7.31,7.31,0,0,1-5.07,4,14.76,14.76,0,0,1-2.48.47h-.08c-.7.07-1.37.11-2,.11A28.47,28.47,0,0,1,43.67,22a26.82,26.82,0,0,1-10.61-7.52,16.21,16.21,0,0,1-1-1.35A11.43,11.43,0,0,1,31,11.08a6.51,6.51,0,0,1-.14-5,5.59,5.59,0,0,1,1.19-1.8A10.17,10.17,0,0,1,38.42,1.6a20.48,20.48,0,0,1,2.1-.11,28.63,28.63,0,0,1,10.71,2.3,26.72,26.72,0,0,1,10.61,7.53,11.08,11.08,0,0,1,2.57,5.43A5.86,5.86,0,0,1,64,19.79Zm1.75-3.21a12.32,12.32,0,0,0-2.86-6.13A28.28,28.28,0,0,0,51.77,2.51,28.31,28.31,0,0,0,38.27.22a11.51,11.51,0,0,0-7.2,3.06,7.06,7.06,0,0,0-1.48,2.23A8.19,8.19,0,0,0,30,12.14a13.07,13.07,0,0,0,.78,1.47A17.43,17.43,0,0,0,32,15.38a28.31,28.31,0,0,0,11.16,7.93A29.68,29.68,0,0,0,54.4,25.73a19.61,19.61,0,0,0,2.25-.13l.49-.06c.54-.07,1.06-.17,1.56-.28,3.29-.78,5.61-2.49,6.62-4.94h0A7.14,7.14,0,0,0,65.79,16.58ZM59,23.75a14.76,14.76,0,0,1-2.48.47h-.08l.91.42.11,0-.29.85-7.29,21.3-.68,2L47.08,55c-1.34,2.34-4.31,2.83-6.58,2.83a30.8,30.8,0,0,1-12-3c-7.39-3.38-14-9.11-12.13-14.29l0,0,3.06-5.71,1.08-2L30.73,13.61l.47-.85,0,0,.85.38A11.43,11.43,0,0,1,31,11.08l-.39-.21L30,12.14l-11,20.55-.76,1.41-3,5.68L15,40C12.83,46,19.91,52.37,27.9,56a32,32,0,0,0,12.6,3.16c3.81,0,6.51-1.24,7.82-3.6l2.11-6.16L51,47.84,58.7,25.26l.49-1.44ZM56,57.62a25.49,25.49,0,0,0-5-9.78c-.17-.2-.33-.41-.51-.61L50,46.7l-.17.14-.68,2,.3.14.37-.31c.21.25.4.51.59.76a23.49,23.49,0,0,1,4.2,8.52,13.76,13.76,0,0,1-.79,9.37c-2.6,5.36-8.71,8.42-16.79,8.42a38,38,0,0,1-13.21-2.55l-.72-.28-.48-.2c-.6-.24-1.21-.51-1.81-.79l-.69-.32c-.82-.4-1.62-.82-2.41-1.26A36.21,36.21,0,0,1,4.42,57.92C2,53.83,1,49.71,1.55,46a12.48,12.48,0,0,1,1.11-3.56c2.4-5,8.13-8,15.51-8.36.3,0,.62,0,.92,0v.48l.33.16,1.08-2v0H18.93c-8.29.15-14.8,3.55-17.52,9.16a13.9,13.9,0,0,0-1.23,4c-.63,4,.42,8.45,3,12.83A37.12,37.12,0,0,0,16.06,71l.61.36.61.34q1.11.61,2.25,1.17c.82.41,1.67.78,2.5,1.12l.09,0,.55.22c.22.1.44.18.65.26a39.36,39.36,0,0,0,13.73,2.66,24.46,24.46,0,0,0,11.16-2.45A14.41,14.41,0,0,0,56,57.62ZM3,109.39s-.05,0-.09,0l0,0v0a.07.07,0,0,1,0-.08L17.28,71.66h0l5.1,1.41,0,0a.11.11,0,0,1,0,.13L22,74ZM23.12,72.9l-.48-.2c-.6-.24-1.21-.51-1.81-.79l-.69-.32c-.82-.4-1.62-.82-2.41-1.26l-1.24-.49L16.06,71,1.53,108.81a1.47,1.47,0,0,0,.22,1.45,1.46,1.46,0,0,0,.53.42.72.72,0,0,0,.17.06,1.24,1.24,0,0,0,.46.08A1.48,1.48,0,0,0,4.22,110l19.1-35.57.35-.65h0a1.35,1.35,0,0,0,.16-.64l-.72-.28" transform="translate(0 -0.1)"/></g></g></g></svg>